<svg width="32" height="32" viewBox="0 0 32 32" fill="none" xmlns="http://www.w3.org/2000/svg">
<path d="M0 10C0 4.47715 4.47715 0 10 0H22C27.5228 0 32 4.47715 32 10V22C32 27.5228 27.5228 32 22 32H10C4.47715 32 0 27.5228 0 22V10Z" fill="url(#paint0_linear_122_2152)"/>
<path d="M13.284 9.458H22.286V10.34H13.284V9.458ZM13.13 17.438H22.384V18.306H13.13V17.438ZM14.992 12.44V13.91H20.452V12.44H14.992ZM14.054 11.656H21.432V14.694H14.054V11.656ZM13.718 15.632H21.796V16.472H13.718V15.632ZM17.162 12.048H18.17V15.688C18.17 16.0987 18.1373 16.5093 18.072 16.92C18.0067 17.3307 17.8807 17.7367 17.694 18.138C17.5167 18.53 17.2507 18.908 16.896 19.272C16.5507 19.6267 16.098 19.9627 15.538 20.28C14.978 20.6067 14.2827 20.896 13.452 21.148C13.4147 21.064 13.3587 20.9707 13.284 20.868C13.2187 20.7747 13.144 20.6767 13.06 20.574C12.9853 20.4807 12.9107 20.4013 12.836 20.336C13.62 20.1213 14.2733 19.8787 14.796 19.608C15.3187 19.3373 15.7387 19.0433 16.056 18.726C16.3733 18.4087 16.6113 18.082 16.77 17.746C16.9287 17.41 17.0313 17.0693 17.078 16.724C17.134 16.3693 17.162 16.024 17.162 15.688V12.048ZM18.394 17.732C18.7207 18.3947 19.2387 18.9407 19.948 19.37C20.6667 19.79 21.516 20.084 22.496 20.252C22.4213 20.3173 22.342 20.4013 22.258 20.504C22.174 20.6067 22.0947 20.714 22.02 20.826C21.9453 20.938 21.8847 21.0407 21.838 21.134C20.802 20.9007 19.9153 20.518 19.178 19.986C18.4407 19.454 17.8853 18.782 17.512 17.97L18.394 17.732ZM15.538 8.24H16.518V11.348H15.538V8.24ZM18.828 8.24H19.822V11.348H18.828V8.24ZM10.246 9.122L10.848 8.366C11.128 8.48733 11.422 8.63667 11.73 8.814C12.038 8.982 12.3227 9.15933 12.584 9.346C12.8547 9.52333 13.074 9.69133 13.242 9.85L12.626 10.718C12.458 10.55 12.2387 10.368 11.968 10.172C11.7067 9.976 11.4267 9.78933 11.128 9.612C10.8293 9.42533 10.5353 9.262 10.246 9.122ZM9.532 12.902L10.12 12.118C10.4 12.23 10.694 12.3653 11.002 12.524C11.31 12.6827 11.5993 12.8507 11.87 13.028C12.15 13.196 12.374 13.3593 12.542 13.518L11.94 14.372C11.772 14.2133 11.5527 14.0453 11.282 13.868C11.0113 13.6907 10.722 13.518 10.414 13.35C10.1153 13.1727 9.82133 13.0233 9.532 12.902ZM9.91 20.294C10.134 19.93 10.3767 19.5007 10.638 19.006C10.8993 18.502 11.1653 17.97 11.436 17.41C11.7067 16.85 11.9587 16.3087 12.192 15.786L13.018 16.416C12.8127 16.9013 12.584 17.41 12.332 17.942C12.0893 18.474 11.8373 18.9967 11.576 19.51C11.324 20.0233 11.0767 20.4993 10.834 20.938L9.91 20.294Z" fill="white"/>
<defs>
<linearGradient id="paint0_linear_122_2152" x1="0" y1="0" x2="32" y2="32" gradientUnits="userSpaceOnUse">
<stop stop-color="#0F766E"/>
<stop offset="0.0769231" stop-color="#0F7B72"/>
<stop offset="0.153846" stop-color="#108076"/>
<stop offset="0.230769" stop-color="#10857B"/>
<stop offset="0.307692" stop-color="#118A7F"/>
<stop offset="0.384615" stop-color="#118F83"/>
<stop offset="0.461538" stop-color="#129487"/>
<stop offset="0.538462" stop-color="#12998C"/>
<stop offset="0.615385" stop-color="#129E90"/>
<stop offset="0.692308" stop-color="#13A394"/>
<stop offset="0.769231" stop-color="#13A899"/>
<stop offset="0.846154" stop-color="#13AE9D"/>
<stop offset="0.923077" stop-color="#14B3A2"/>
<stop offset="1" stop-color="#14B8A6"/>
</linearGradient>
</defs>
</svg>
